<?xml version="1.0" encoding="iso-8859-1"?>
<!-- Generator: Adobe Illustrator 19.0.0, SVG Export Plug-In . SVG Version: 6.00 Build 0)  -->
<svg version="1.1" id="Layer_1" xmlns="http://www.w3.org/2000/svg" xmlns:xlink="http://www.w3.org/1999/xlink" x="0px" y="0px"
	 viewBox="0 0 512 512" style="enable-background:new 0 0 512 512;" xml:space="preserve">
<path style="fill:#FF675C;" d="M107.594,56.712c0,26.936-21.826,48.762-48.762,48.762S10.07,83.648,10.07,56.712
	S31.897,7.95,58.832,7.95S107.594,29.777,107.594,56.712z"/>
<path style="fill:#DB3D5A;" d="M75.793,92.754c-26.936,0-48.762-21.826-48.762-48.762c0-12.119,4.429-23.196,11.744-31.724
	C21.851,19.915,10.07,36.93,10.07,56.712c0,26.936,21.826,48.762,48.762,48.762c14.816,0,28.076-6.613,37.018-17.038
	C89.731,91.202,82.946,92.754,75.793,92.754z"/>
<path style="fill:#FAEC8E;" d="M453.168,7.95c26.936,0,48.762,21.826,48.762,48.762s-21.826,48.762-48.762,48.762
	c-26.936,0-48.762-21.826-48.762-48.762S426.232,7.95,453.168,7.95z"/>
<path style="fill:#FBC96C;" d="M474.369,88.513c-26.936,0-48.762-21.826-48.762-48.762c0-10.471,3.309-20.162,8.924-28.106
	c-17.685,7.319-30.125,24.733-30.125,45.067c0,26.936,21.826,48.762,48.762,48.762c16.465,0,31.009-8.163,39.837-20.656
	C487.263,87.195,480.97,88.513,474.369,88.513z"/>
<polygon style="fill:#E0DDDF;" points="289.921,334.443 289.921,130.915 217.839,130.915 217.839,334.443 73.673,504.05 
	438.327,504.05 "/>
<rect x="217.839" y="130.915" style="fill:#C1BCBF;" width="25.706" height="84.803"/>
<polygon style="fill:#5CC4E0;" points="217.839,215.718 289.921,215.718 289.921,334.443 438.327,504.05 73.673,504.05 
	217.839,334.443 "/>
<g>
	<polygon style="fill:#439EE8;" points="243.28,215.718 217.839,215.718 217.839,334.443 73.673,504.05 140.46,504.05 
		243.28,334.443 	"/>
	<circle style="fill:#439EE8;" cx="324.903" cy="446.807" r="34.981"/>
	<circle style="fill:#439EE8;" cx="266.07" cy="397.547" r="22.51"/>
	<circle style="fill:#439EE8;" cx="217.308" cy="448.398" r="27.031"/>
</g>
<g>
	<path style="fill:#FFFFFF;" d="M474.019,66.783h-35.692c-4.392,0-7.95-3.559-7.95-7.95s3.559-7.95,7.95-7.95h35.692
		c4.392,0,7.95,3.559,7.95,7.95S478.41,66.783,474.019,66.783z"/>
	<path style="fill:#FFFFFF;" d="M73.673,50.882h-9.89v-9.89c0-4.392-3.559-7.95-7.95-7.95s-7.95,3.559-7.95,7.95v9.89h-9.901
		c-4.392,0-7.95,3.559-7.95,7.95s3.559,7.95,7.95,7.95h9.901v9.89c0,4.392,3.559,7.95,7.95,7.95s7.95-3.559,7.95-7.95v-9.89h9.89
		c4.392,0,7.95-3.559,7.95-7.95S78.065,50.882,73.673,50.882z"/>
</g>
<path d="M453.168,0c-29.303,0-53.485,22.339-56.414,50.882H268.72c-4.392,0-7.95,3.559-7.95,7.95v64.133h-9.54V58.832
	c0-4.392-3.559-7.95-7.95-7.95H115.247C112.318,22.339,88.135,0,58.832,0C27.561,0,2.12,25.441,2.12,56.712
	s25.441,56.712,56.712,56.712c27.834,0,51.03-20.161,55.798-46.642h120.698v56.182h-34.451c-4.392,0-7.95,3.559-7.95,7.95
	c0,4.392,3.559,7.95,7.95,7.95h9.01v192.655L67.615,498.901c-2.007,2.362-2.458,5.673-1.159,8.487
	C67.758,510.2,70.573,512,73.673,512h364.654c3.119,0,5.95-1.824,7.24-4.664c1.289-2.842,0.797-6.173-1.257-8.521l-87.186-99.642
	c-2.893-3.305-7.916-3.639-11.218-0.748c-3.304,2.892-3.64,7.914-0.748,11.218l75.65,86.456H90.866l133.031-156.508
	c1.221-1.437,1.892-3.263,1.892-5.149v-21.731h17.491c4.392,0,7.95-3.559,7.95-7.95s-3.559-7.95-7.95-7.95h-17.491V266.07h17.491
	c4.392,0,7.95-3.559,7.95-7.95s-3.559-7.95-7.95-7.95h-17.491V138.865h56.182v195.578c0,1.925,0.699,3.785,1.966,5.234
	l29.679,33.919c1.572,1.797,3.774,2.716,5.986,2.716c1.858,0,3.725-0.648,5.232-1.966c3.304-2.892,3.64-7.914,0.748-11.218
	l-27.712-31.672v-192.59h9.01c4.392,0,7.95-3.559,7.95-7.95c0-4.392-3.559-7.95-7.95-7.95h-30.211V66.783h120.698
	c4.768,26.481,27.965,46.642,55.798,46.642c31.271,0,56.712-25.441,56.712-56.712S484.439,0,453.168,0z M58.832,97.524
	c-22.504,0-40.812-18.308-40.812-40.812s18.308-40.812,40.812-40.812s40.812,18.308,40.812,40.812S81.336,97.524,58.832,97.524z
	 M453.168,97.524c-22.504,0-40.812-18.308-40.812-40.812s18.308-40.812,40.812-40.812c22.504,0,40.812,18.308,40.812,40.812
	S475.671,97.524,453.168,97.524z"/>
<g>
</g>
<g>
</g>
<g>
</g>
<g>
</g>
<g>
</g>
<g>
</g>
<g>
</g>
<g>
</g>
<g>
</g>
<g>
</g>
<g>
</g>
<g>
</g>
<g>
</g>
<g>
</g>
<g>
</g>
</svg>
